name Walk10.mot
datacolumns 19
datarows 17
range 0.78000000 0.79600000
endheader

                time	   L_ground_force_vx	   L_ground_force_vy	   L_ground_force_vz	   L_ground_force_px	   L_ground_force_py	   L_ground_force_pz	   R_ground_force_vx	   R_ground_force_vy	   R_ground_force_vz	   R_ground_force_px	   R_ground_force_py	   R_ground_force_pz	   L_ground_torque_x	   L_ground_torque_y	   L_ground_torque_z	   R_ground_torque_x	   R_ground_torque_y	   R_ground_torque_z	
          0.78000000	          0.00000000	          0.00000000	          0.00000000	          0.00000000	          0.00000000	          0.00000000	          0.00000000	          0.00000000	          0.00000000	          0.00000000	          0.00000000	          0.00000000	          0.00000000	          0.00000000	          0.00000000	          0.00000000	          0.00000000	          0.00000000	
          0.78100000	          0.00000000	          0.00000000	          0.00000000	          0.00000000	          0.00000000	          0.00000000	          0.00000000	          0.00000000	          0.00000000	          0.00000000	          0.00000000	          0.00000000	          0.00000000	          0.00000000	          0.00000000	          0.00000000	          0.00000000	          0.00000000	
          0.78200000	          0.00000000	          0.00000000	          0.00000000	          0.00000000	          0.00000000	          0.00000000	          0.00000000	          0.00000000	          0.00000000	          0.00000000	          0.00000000	          0.00000000	          0.00000000	          0.00000000	          0.00000000	          0.00000000	          0.00000000	          0.00000000	
          0.78300000	          0.00000000	          0.00000000	          0.00000000	          0.00000000	          0.00000000	          0.00000000	          0.00000000	          0.00000000	          0.00000000	          0.00000000	          0.00000000	          0.00000000	          0.00000000	          0.00000000	          0.00000000	          0.00000000	          0.00000000	          0.00000000	
          0.78400000	         -5.64482311	         15.37787705	          1.46969060	         -0.39544749	          0.00000000	          0.15410115	          0.00000000	          0.00000000	          0.00000000	          0.00000000	          0.00000000	          0.00000000	          0.00000000	          0.10350105	          0.00000000	          0.00000000	          0.00000000	          0.00000000	
          0.78500000	         -8.42178798	         28.32368369	          2.57034792	         -0.39371240	          0.00000000	          0.15377521	          0.00000000	          0.00000000	          0.00000000	          0.00000000	          0.00000000	          0.00000000	          0.00000000	          0.12738123	          0.00000000	          0.00000000	          0.00000000	          0.00000000	
          0.78600000	        -11.43098416	         46.31294942	          4.07730237	         -0.39227236	          0.00000000	          0.15381143	          0.00000000	          0.00000000	          0.00000000	          0.00000000	          0.00000000	          0.00000000	          0.00000000	          0.15341749	          0.00000000	          0.00000000	          0.00000000	          0.00000000	
          0.78700000	        -14.45751900	         69.90056965	          6.08996442	         -0.39080988	          0.00000000	          0.15381756	          0.00000000	          0.00000000	          0.00000000	          0.00000000	          0.00000000	          0.00000000	          0.00000000	          0.18149998	          0.00000000	          0.00000000	          0.00000000	          0.00000000	
          0.78800000	        -17.19392458	         99.11114432	          8.71965986	         -0.38929009	          0.00000000	          0.15364764	          0.00000000	          0.00000000	          0.00000000	          0.00000000	          0.00000000	          0.00000000	          0.00000000	          0.20398888	          0.00000000	          0.00000000	          0.00000000	          0.00000000	
          0.78900000	        -19.24760087	        132.91867629	         12.04643823	         -0.38786500	          0.00000000	          0.15334670	          0.00000000	          0.00000000	          0.00000000	          0.00000000	          0.00000000	          0.00000000	          0.00000000	          0.21383798	          0.00000000	          0.00000000	          0.00000000	          0.00000000	
          0.79000000	        -20.26723050	        169.12048940	         16.08104899	         -0.38669908	          0.00000000	          0.15298949	          0.00000000	          0.00000000	          0.00000000	          0.00000000	          0.00000000	          0.00000000	          0.00000000	          0.21190170	          0.00000000	          0.00000000	          0.00000000	          0.00000000	
          0.79100000	        -20.09075797	        204.83752138	         20.74150378	         -0.38585948	          0.00000000	          0.15261693	          0.00000000	          0.00000000	          0.00000000	          0.00000000	          0.00000000	          0.00000000	          0.00000000	          0.20574395	          0.00000000	          0.00000000	          0.00000000	          0.00000000	
          0.79200000	        -18.82239783	        237.40233352	         25.86323355	         -0.38530991	          0.00000000	          0.15223949	          0.00000000	          0.00000000	          0.00000000	          0.00000000	          0.00000000	          0.00000000	          0.00000000	          0.20168233	          0.00000000	          0.00000000	          0.00000000	          0.00000000	
          0.79300000	        -16.79699250	        265.04728718	         31.24160366	         -0.38496053	          0.00000000	          0.15185152	          0.00000000	          0.00000000	          0.00000000	          0.00000000	          0.00000000	          0.00000000	          0.00000000	          0.19895385	          0.00000000	          0.00000000	          0.00000000	          0.00000000	
          0.79400000	        -14.46136477	        287.04707738	         36.67285761	         -0.38471754	          0.00000000	          0.15145660	          0.00000000	          0.00000000	          0.00000000	          0.00000000	          0.00000000	          0.00000000	          0.00000000	          0.19228519	          0.00000000	          0.00000000	          0.00000000	          0.00000000	
          0.79500000	        -12.24511880	        303.46055128	         41.96721341	         -0.38451179	          0.00000000	          0.15110046	          0.00000000	          0.00000000	          0.00000000	          0.00000000	          0.00000000	          0.00000000	          0.00000000	          0.17846230	          0.00000000	          0.00000000	          0.00000000	          0.00000000	
          0.79600000	        -10.47452436	        314.81683393	         46.94467295	         -0.38430467	          0.00000000	          0.15086655	          0.00000000	          0.00000000	          0.00000000	          0.00000000	          0.00000000	          0.00000000	          0.00000000	          0.15926164	          0.00000000	          0.00000000	          0.00000000	          0.00000000	
